<?xml version="1.0" encoding="UTF-8" standalone="no"?>
<!-- Created with Inkscape (http://www.inkscape.org/) -->

<svg
   width="210mm"
   height="297mm"
   viewBox="0 0 210 297"
   version="1.1"
   id="svg1"
   xml:space="preserve"
   inkscape:version="1.4 (86a8ad7, 2024-10-11)"
   sodipodi:docname="logoPagReact.svg"
   inkscape:export-filename="logoPagReact.png"
   inkscape:export-xdpi="96"
   inkscape:export-ydpi="96"
   xmlns:inkscape="http://www.inkscape.org/namespaces/inkscape"
   xmlns:sodipodi="http://sodipodi.sourceforge.net/DTD/sodipodi-0.dtd"
   xmlns:xlink="http://www.w3.org/1999/xlink"
   xmlns="http://www.w3.org/2000/svg"
   xmlns:svg="http://www.w3.org/2000/svg"><sodipodi:namedview
     id="namedview1"
     pagecolor="#505050"
     bordercolor="#eeeeee"
     borderopacity="1"
     inkscape:showpageshadow="0"
     inkscape:pageopacity="0"
     inkscape:pagecheckerboard="0"
     inkscape:deskcolor="#505050"
     inkscape:document-units="mm"
     inkscape:zoom="11.26452"
     inkscape:cx="314.8381"
     inkscape:cy="373.16283"
     inkscape:window-width="3840"
     inkscape:window-height="2054"
     inkscape:window-x="-11"
     inkscape:window-y="-11"
     inkscape:window-maximized="1"
     inkscape:current-layer="layer1" /><defs
     id="defs1"><linearGradient
       id="linearGradient2"
       inkscape:collect="always"><stop
         style="stop-color:#555555;stop-opacity:1;"
         offset="0"
         id="stop2" /><stop
         style="stop-color:#000000;stop-opacity:1;"
         offset="1"
         id="stop3" /></linearGradient><radialGradient
       inkscape:collect="always"
       xlink:href="#linearGradient2"
       id="radialGradient3"
       cx="73.46183"
       cy="104.06922"
       fx="73.46183"
       fy="104.06922"
       r="1.789685"
       gradientTransform="matrix(1,0,0,0.97741559,-0.2993336,4.1566137)"
       gradientUnits="userSpaceOnUse" /><radialGradient
       inkscape:collect="always"
       xlink:href="#linearGradient2"
       id="radialGradient3-2"
       cx="73.46183"
       cy="104.06922"
       fx="73.46183"
       fy="104.06922"
       r="1.789685"
       gradientTransform="matrix(1,0,0,0.97741559,14.572898,4.10795)"
       gradientUnits="userSpaceOnUse" /></defs><g
     inkscape:label="Capa 1"
     inkscape:groupmode="layer"
     id="layer1"><rect
       style="opacity:0.996;fill:#3164b1;fill-opacity:0.347267;stroke:#040201;stroke-width:0.249957"
       id="rect1"
       width="31.589403"
       height="15.600112"
       x="65.499352"
       y="93.928505"
       ry="6.0360904"
       inkscape:export-filename="rect1.png"
       inkscape:export-xdpi="96"
       inkscape:export-ydpi="96" /><g
       id="g17"
       transform="matrix(0.84599944,0,0,0.84599944,13.609154,18.32009)"><path
         style="fill:#f2f2f2;stroke:#000000;stroke-width:0.264583px;stroke-linecap:butt;stroke-linejoin:miter;stroke-opacity:1"
         d="m 91.627488,102.65094 c 0,-0.0152 -0.03789,-0.16673 -0.03789,-0.16673 l -0.485029,-0.23241 c 0,0 -0.836173,-0.16421 -1.616768,-0.24252 -0.780595,-0.0783 -3.023857,-0.19957 -3.023857,-0.19957 l -0.143994,0.043 c 0,0 -0.623969,-0.53303 -1.16963,-0.91701 -0.545658,-0.38398 -1.692553,-1.068581 -1.922436,-1.151946 -0.229883,-0.08337 -0.826066,-0.217255 -1.712762,-0.247568 -0.886695,-0.03031 -4.213698,-0.05305 -4.213698,-0.05305 l -0.368824,-0.260199 -0.113678,-0.0051 -0.08842,0.227359 -0.0051,0.096 c 0,0 -0.601237,0.05305 -0.750282,0.116205 -0.149045,0.06315 -0.161676,0.07831 -0.161676,0.07831 l -0.02779,0.19957 -0.106098,0.118729 -0.174311,1.31868 c 0,0 -0.141464,0.19957 -0.346088,0.22735 -0.204621,0.0278 -6.606005,0.0783 -6.606005,0.0783 l -0.02527,-0.0733 -0.07831,-0.0177 -0.096,0.27031 -0.05654,0.11093 0.05374,0.23048 0.02687,0.0434 c 0,0 -0.02604,0.23821 -0.03772,0.513 -0.01169,0.27478 -0.03216,0.64019 -0.01169,0.73081 0.02045,0.0906 0.06285,0.36435 0.06285,0.36435 0,0 -0.01035,0.22222 0.0011,0.28733 0.01138,0.0651 0.03307,0.21083 0.03307,0.21083 l -0.588068,0.44419 -0.01754,0.52618 c 0,0 0.286481,0.5145 0.432642,0.54373 0.146164,0.0292 2.74202,0.0994 2.74202,0.0994 0,0 0.01169,-0.10524 0,-0.18709 -0.0117,-0.0818 0.35079,-0.0409 0.35079,-0.0409 0,0 -0.07016,-0.73082 0.450183,-1.05238 0.52034,-0.32155 0.783434,-0.67235 1.420704,-0.53788 0.63727,0.13447 1.74811,0.52619 1.742263,1.38563 -0.0058,0.85944 0.391718,0.55542 0.391718,0.55542 l 10.529583,0.0351 0.432641,-0.0468 c 0,0 3.531299,0.0234 3.560533,0.0292 0.02923,0.006 0.321558,0.18124 0.321558,0.18124 0,0 1.017294,0.0702 1.075759,0.0117 0.05846,-0.0585 0.02923,-0.10524 0.175398,-0.1754 0.146161,-0.0702 0.537879,-0.30402 0.537879,-0.30402 l 0.04256,-0.54851 0.08062,-0.17054 -0.02066,-0.26561 -0.04754,-0.0651 c 0,0 0.01241,-0.43304 0.0031,-0.44751 -0.0093,-0.0145 -0.210838,-0.26355 -0.222208,-0.28629 -0.01138,-0.0227 -0.0093,-0.43718 -0.0093,-0.43718 l -0.04444,-0.18604 -0.06098,-0.0269 0.01963,-0.0558 0.07441,-0.0104 0.05891,-0.0599 c 0,0 0.04031,-0.14986 0.03617,-0.15296 -0.0041,-0.003 -0.06098,-0.13746 -0.06098,-0.13746 0,0 -0.07752,-0.0444 -0.08165,-0.0444 -0.0041,0 -0.09819,-10e-4 -0.09819,-10e-4 l -0.01447,-0.093 -0.07648,-0.10336 -0.03721,-0.0331 0.10025,-0.0248 z"
         id="path3" /><ellipse
         style="opacity:0.996;fill:url(#radialGradient3);stroke:#040201;stroke-width:0.319761"
         id="path1"
         cx="73.162506"
         cy="105.8755"
         rx="1.6298045"
         ry="1.5893855" /><ellipse
         style="opacity:0.996;fill:url(#radialGradient3-2);stroke:#040201;stroke-width:0.319761"
         id="path1-4"
         cx="88.034737"
         cy="105.82682"
         rx="1.6298045"
         ry="1.5893855" /><path
         style="fill:#ff0000;stroke:#000000;stroke-width:0.264583px;stroke-linecap:butt;stroke-linejoin:miter;stroke-opacity:1"
         d="m 68.407192,102.19531 0.839226,0.0165 -0.05788,1.80247 -0.661459,0.38034 -0.136427,-0.40101 z"
         id="path4" /><path
         style="fill:#999999;stroke:#000000;stroke-width:0.264583px;stroke-linecap:butt;stroke-linejoin:miter;stroke-opacity:1"
         d="m 75.513736,101.32715 0.611849,0.45475 8.383984,0.23978 0.429948,0.28112 1.016992,0.0165 0.305925,-0.42994 c 0,0 -1.066602,-0.98392 -1.769401,-1.43041 -0.7028,-0.44648 -1.331185,-0.719333 -1.703255,-0.768942 -0.372071,-0.04961 -1.893425,-0.206706 -3.067513,-0.190169 -1.174089,0.01654 -2.389519,0.04961 -2.389519,0.04961 l -0.396875,-0.413412 -0.173632,0.02479 -0.02479,0.37207 -0.942578,0.198438 -0.03307,0.14056 z"
         id="path5" /><path
         style="fill:none;stroke:#000000;stroke-width:0.264583px;stroke-linecap:butt;stroke-linejoin:miter;stroke-opacity:1"
         d="m 91.459014,103.02627 c -0.08268,-0.0331 -0.20257,0.29765 -0.186033,0.29765 0.01654,0 0.301789,0.14883 0.301789,0.14883 l 0.08682,-0.23564 0.132292,-0.0289 0.01654,-0.19017 -0.243915,-0.1571 z"
         id="path6" /><path
         style="fill:none;stroke:#000000;stroke-width:0.264583px;stroke-linecap:butt;stroke-linejoin:miter;stroke-opacity:1"
         d="m 91.446613,102.84023 c 0,0 -0.814421,0.10335 -0.959114,0.0703 -0.144695,-0.0331 -0.07855,0.4961 -0.07855,0.4961 l 0.285256,0.48369 0.326593,0.1695 0.587045,0.0248 0.09509,-0.16123 -0.0083,-0.35554 -0.272852,-0.062 c 0,0 -0.256315,-0.21497 -0.227378,-0.2067 0.02894,0.008 0.252183,-0.45889 0.252183,-0.45889 z"
         id="path7" /><path
         style="fill:#333333;stroke:#000000;stroke-width:0.264583px;stroke-linecap:butt;stroke-linejoin:miter;stroke-opacity:1"
         d="m 91.880998,104.26393 -0.301095,0.6782 -0.0029,0.52911 c 0,0 -0.567113,0.27771 -0.593421,0.27478 -0.0263,-0.003 -1.169304,-0.0409 -1.169304,-0.0409 v 0.42679 l 0.327406,0.0965 1.090374,0.0965 0.698659,-0.47065 0.08477,-0.58757 0.119853,-0.24556 -0.06139,-0.23093 -0.07893,-0.19586 0.06431,-0.27771 z"
         id="path8" /><path
         style="fill:#333333;stroke:#000000;stroke-width:0.264583px;stroke-linecap:butt;stroke-linejoin:miter;stroke-opacity:1"
         d="m 68.497838,104.4481 0.63727,0.42094 2.227525,0.0877 c 0,0 -0.04677,0.74251 -0.07016,0.74836 -0.02339,0.006 -0.292328,-0.0175 -0.292328,-0.0175 l 0.0058,0.32741 c 0,0 -2.718633,-0.0526 -2.747864,-0.076 -0.02923,-0.0234 -0.479415,-0.6665 -0.479415,-0.6665 0,0 0.02923,-0.42095 0.05262,-0.38002 0.02339,0.0409 0.666504,-0.44434 0.666504,-0.44434 z"
         id="path9" /><path
         style="fill:#333333;stroke:#000000;stroke-width:0.264583px;stroke-linecap:butt;stroke-linejoin:miter;stroke-opacity:1"
         d="m 86.265416,105.43616 -11.266247,-0.0117 0.11693,0.78343 0.479414,-0.10523 10.31911,0.0468 c 0,0 0.456028,-0.0935 0.42095,-0.0935 -0.03508,0 -0.07016,-0.61974 -0.07016,-0.61974 z"
         id="path10" /><path
         style="fill:none;stroke:#000000;stroke-width:0.264583px;stroke-linecap:butt;stroke-linejoin:miter;stroke-opacity:1"
         d="m 81.278332,101.96332 0.05846,3.46114"
         id="path11" /><path
         style="fill:none;stroke:#000000;stroke-width:0.264583px;stroke-linecap:butt;stroke-linejoin:miter;stroke-opacity:1"
         d="m 85.932162,102.41935 0.05846,2.26845 -0.456028,0.68989"
         id="path12" /><path
         style="fill:none;stroke:#000000;stroke-width:0.264583px;stroke-linecap:butt;stroke-linejoin:miter;stroke-opacity:1"
         d="m 76.156779,101.85809 0.04677,2.64262 0.65481,0.86529"
         id="path13" /><path
         style="fill:none;stroke:#000000;stroke-width:0.264583px;stroke-linecap:butt;stroke-linejoin:miter;stroke-opacity:1"
         d="m 80.892461,103.50681 -0.666501,0.0234"
         id="path14" /><path
         style="fill:none;stroke:#000000;stroke-width:0.264583px;stroke-linecap:butt;stroke-linejoin:miter;stroke-opacity:1"
         d="m 85.522908,103.41326 -0.631426,-0.0117"
         id="path15" /><path
         style="fill:none;stroke:#000000;stroke-width:0.264583px;stroke-linecap:butt;stroke-linejoin:miter;stroke-opacity:1"
         d="m 76.940213,99.086835 -1.46163,-1.192691"
         id="path16" /><path
         style="fill:none;stroke:#000000;stroke-width:0.264583px;stroke-linecap:butt;stroke-linejoin:miter;stroke-opacity:1"
         d="m 76.285404,99.718258 -0.18709,2.034592"
         id="path17" /></g><text
       xml:space="preserve"
       style="font-size:3.10147px;line-height:1.25;font-family:'Segoe Script';-inkscape-font-specification:'Segoe Script';text-align:center;text-anchor:middle;stroke-width:0.0775363"
       x="80.843468"
       y="96.878159"
       id="text17"><tspan
         sodipodi:role="line"
         id="tspan17"
         style="font-style:normal;font-variant:normal;font-weight:normal;font-stretch:normal;font-family:'ROG Fonts';-inkscape-font-specification:'ROG Fonts';fill:#ffffff;fill-opacity:1;stroke-width:0.0775363"
         x="80.843468"
         y="96.878159">AUTITOS</tspan><tspan
         sodipodi:role="line"
         style="font-style:normal;font-variant:normal;font-weight:normal;font-stretch:normal;font-family:'ROG Fonts';-inkscape-font-specification:'ROG Fonts';fill:#ffffff;fill-opacity:1;stroke-width:0.0775363"
         x="80.843468"
         y="101.02376"
         id="tspan18"> EXPRESS</tspan></text></g></svg>
